<mxfile host="app.diagrams.net" agent="Mozilla/5.0 (Windows NT 10.0; Win64; x64) AppleWebKit/537.36 (KHTML, like Gecko) Chrome/137.0.0.0 Safari/537.36 Edg/137.0.0.0" version="27.1.1">
  <diagram name="Page-1" id="rBHFA6Y7nBq18i1wPeov">
    <mxGraphModel dx="1657" dy="786" grid="1" gridSize="10" guides="1" tooltips="1" connect="1" arrows="1" fold="1" page="1" pageScale="1" pageWidth="827" pageHeight="1169" math="0" shadow="0">
      <root>
        <mxCell id="0" />
        <mxCell id="1" parent="0" />
        <mxCell id="kbJRGEqropHdvLp3n68f-18" style="edgeStyle=orthogonalEdgeStyle;rounded=0;orthogonalLoop=1;jettySize=auto;html=1;exitX=0;exitY=1;exitDx=0;exitDy=0;entryX=1;entryY=0.5;entryDx=0;entryDy=0;" parent="1" source="kbJRGEqropHdvLp3n68f-1" target="kbJRGEqropHdvLp3n68f-14" edge="1">
          <mxGeometry relative="1" as="geometry" />
        </mxCell>
        <mxCell id="kbJRGEqropHdvLp3n68f-1" value="Library" style="rounded=0;whiteSpace=wrap;html=1;fillColor=#dae8fc;strokeColor=#6c8ebf;" parent="1" vertex="1">
          <mxGeometry x="130" y="300" width="90" height="30" as="geometry" />
        </mxCell>
        <mxCell id="kbJRGEqropHdvLp3n68f-91" style="edgeStyle=orthogonalEdgeStyle;rounded=0;orthogonalLoop=1;jettySize=auto;html=1;exitX=0;exitY=0.5;exitDx=0;exitDy=0;" parent="1" source="kbJRGEqropHdvLp3n68f-2" target="kbJRGEqropHdvLp3n68f-27" edge="1">
          <mxGeometry relative="1" as="geometry" />
        </mxCell>
        <mxCell id="kbJRGEqropHdvLp3n68f-92" style="edgeStyle=orthogonalEdgeStyle;rounded=0;orthogonalLoop=1;jettySize=auto;html=1;exitX=0;exitY=0;exitDx=0;exitDy=0;entryX=1;entryY=0.5;entryDx=0;entryDy=0;" parent="1" source="kbJRGEqropHdvLp3n68f-2" target="kbJRGEqropHdvLp3n68f-26" edge="1">
          <mxGeometry relative="1" as="geometry" />
        </mxCell>
        <mxCell id="kbJRGEqropHdvLp3n68f-93" style="edgeStyle=orthogonalEdgeStyle;rounded=0;orthogonalLoop=1;jettySize=auto;html=1;exitX=0.5;exitY=0;exitDx=0;exitDy=0;entryX=1;entryY=0.5;entryDx=0;entryDy=0;" parent="1" source="kbJRGEqropHdvLp3n68f-2" target="kbJRGEqropHdvLp3n68f-25" edge="1">
          <mxGeometry relative="1" as="geometry">
            <Array as="points">
              <mxPoint x="675" y="270" />
              <mxPoint x="640" y="270" />
              <mxPoint x="640" y="205" />
            </Array>
          </mxGeometry>
        </mxCell>
        <mxCell id="kbJRGEqropHdvLp3n68f-95" style="edgeStyle=orthogonalEdgeStyle;rounded=0;orthogonalLoop=1;jettySize=auto;html=1;exitX=0.25;exitY=0;exitDx=0;exitDy=0;entryX=1;entryY=1;entryDx=0;entryDy=0;" parent="1" source="kbJRGEqropHdvLp3n68f-2" target="kbJRGEqropHdvLp3n68f-24" edge="1">
          <mxGeometry relative="1" as="geometry" />
        </mxCell>
        <mxCell id="kbJRGEqropHdvLp3n68f-96" style="edgeStyle=orthogonalEdgeStyle;rounded=0;orthogonalLoop=1;jettySize=auto;html=1;exitX=0.5;exitY=0;exitDx=0;exitDy=0;entryX=0;entryY=1;entryDx=0;entryDy=0;" parent="1" source="kbJRGEqropHdvLp3n68f-2" target="kbJRGEqropHdvLp3n68f-23" edge="1">
          <mxGeometry relative="1" as="geometry" />
        </mxCell>
        <mxCell id="kbJRGEqropHdvLp3n68f-97" style="edgeStyle=orthogonalEdgeStyle;rounded=0;orthogonalLoop=1;jettySize=auto;html=1;exitX=0.75;exitY=0;exitDx=0;exitDy=0;entryX=0;entryY=0.5;entryDx=0;entryDy=0;" parent="1" source="kbJRGEqropHdvLp3n68f-2" target="kbJRGEqropHdvLp3n68f-22" edge="1">
          <mxGeometry relative="1" as="geometry">
            <Array as="points">
              <mxPoint x="698" y="230" />
              <mxPoint x="750" y="230" />
            </Array>
          </mxGeometry>
        </mxCell>
        <mxCell id="kbJRGEqropHdvLp3n68f-99" style="edgeStyle=orthogonalEdgeStyle;rounded=0;orthogonalLoop=1;jettySize=auto;html=1;exitX=1;exitY=0.25;exitDx=0;exitDy=0;entryX=0;entryY=0.5;entryDx=0;entryDy=0;" parent="1" source="kbJRGEqropHdvLp3n68f-2" target="kbJRGEqropHdvLp3n68f-21" edge="1">
          <mxGeometry relative="1" as="geometry" />
        </mxCell>
        <mxCell id="kbJRGEqropHdvLp3n68f-100" style="edgeStyle=orthogonalEdgeStyle;rounded=0;orthogonalLoop=1;jettySize=auto;html=1;exitX=1;exitY=0.75;exitDx=0;exitDy=0;entryX=0;entryY=0.5;entryDx=0;entryDy=0;" parent="1" source="kbJRGEqropHdvLp3n68f-2" target="kbJRGEqropHdvLp3n68f-34" edge="1">
          <mxGeometry relative="1" as="geometry" />
        </mxCell>
        <mxCell id="kbJRGEqropHdvLp3n68f-2" value="Book" style="rounded=0;whiteSpace=wrap;html=1;fillColor=#d5e8d4;strokeColor=#82b366;" parent="1" vertex="1">
          <mxGeometry x="630" y="260" width="90" height="30" as="geometry" />
        </mxCell>
        <mxCell id="kbJRGEqropHdvLp3n68f-60" style="edgeStyle=orthogonalEdgeStyle;rounded=0;orthogonalLoop=1;jettySize=auto;html=1;exitX=0;exitY=0.25;exitDx=0;exitDy=0;entryX=1;entryY=0.5;entryDx=0;entryDy=0;" parent="1" source="kbJRGEqropHdvLp3n68f-3" target="kbJRGEqropHdvLp3n68f-28" edge="1">
          <mxGeometry relative="1" as="geometry" />
        </mxCell>
        <mxCell id="kbJRGEqropHdvLp3n68f-61" style="edgeStyle=orthogonalEdgeStyle;rounded=0;orthogonalLoop=1;jettySize=auto;html=1;entryX=1;entryY=0.5;entryDx=0;entryDy=0;" parent="1" source="kbJRGEqropHdvLp3n68f-3" target="kbJRGEqropHdvLp3n68f-29" edge="1">
          <mxGeometry relative="1" as="geometry" />
        </mxCell>
        <mxCell id="kbJRGEqropHdvLp3n68f-62" style="edgeStyle=orthogonalEdgeStyle;rounded=0;orthogonalLoop=1;jettySize=auto;html=1;exitX=0;exitY=0.75;exitDx=0;exitDy=0;entryX=1;entryY=0.5;entryDx=0;entryDy=0;" parent="1" source="kbJRGEqropHdvLp3n68f-3" target="kbJRGEqropHdvLp3n68f-30" edge="1">
          <mxGeometry relative="1" as="geometry" />
        </mxCell>
        <mxCell id="kbJRGEqropHdvLp3n68f-64" style="edgeStyle=orthogonalEdgeStyle;rounded=0;orthogonalLoop=1;jettySize=auto;html=1;exitX=0.75;exitY=1;exitDx=0;exitDy=0;entryX=0.5;entryY=0;entryDx=0;entryDy=0;" parent="1" source="kbJRGEqropHdvLp3n68f-3" target="kbJRGEqropHdvLp3n68f-32" edge="1">
          <mxGeometry relative="1" as="geometry" />
        </mxCell>
        <mxCell id="kbJRGEqropHdvLp3n68f-3" value="Member" style="rounded=0;whiteSpace=wrap;html=1;fillColor=#bac8d3;strokeColor=#23445d;" parent="1" vertex="1">
          <mxGeometry x="655" y="770" width="90" height="30" as="geometry" />
        </mxCell>
        <mxCell id="kbJRGEqropHdvLp3n68f-67" style="edgeStyle=orthogonalEdgeStyle;rounded=0;orthogonalLoop=1;jettySize=auto;html=1;exitX=0;exitY=0.5;exitDx=0;exitDy=0;" parent="1" source="kbJRGEqropHdvLp3n68f-5" target="kbJRGEqropHdvLp3n68f-35" edge="1">
          <mxGeometry relative="1" as="geometry" />
        </mxCell>
        <mxCell id="kbJRGEqropHdvLp3n68f-68" style="edgeStyle=orthogonalEdgeStyle;rounded=0;orthogonalLoop=1;jettySize=auto;html=1;exitX=0;exitY=1;exitDx=0;exitDy=0;entryX=1;entryY=0;entryDx=0;entryDy=0;" parent="1" source="kbJRGEqropHdvLp3n68f-5" target="kbJRGEqropHdvLp3n68f-36" edge="1">
          <mxGeometry relative="1" as="geometry" />
        </mxCell>
        <mxCell id="kbJRGEqropHdvLp3n68f-71" style="edgeStyle=orthogonalEdgeStyle;rounded=0;orthogonalLoop=1;jettySize=auto;html=1;exitX=0.75;exitY=1;exitDx=0;exitDy=0;entryX=0;entryY=0;entryDx=0;entryDy=0;" parent="1" source="kbJRGEqropHdvLp3n68f-5" target="kbJRGEqropHdvLp3n68f-39" edge="1">
          <mxGeometry relative="1" as="geometry" />
        </mxCell>
        <mxCell id="kbJRGEqropHdvLp3n68f-73" style="edgeStyle=orthogonalEdgeStyle;rounded=0;orthogonalLoop=1;jettySize=auto;html=1;exitX=1;exitY=1;exitDx=0;exitDy=0;entryX=0;entryY=0;entryDx=0;entryDy=0;" parent="1" source="kbJRGEqropHdvLp3n68f-5" target="kbJRGEqropHdvLp3n68f-40" edge="1">
          <mxGeometry relative="1" as="geometry" />
        </mxCell>
        <mxCell id="kbJRGEqropHdvLp3n68f-74" style="edgeStyle=orthogonalEdgeStyle;rounded=0;orthogonalLoop=1;jettySize=auto;html=1;exitX=1;exitY=0.5;exitDx=0;exitDy=0;entryX=0;entryY=0.5;entryDx=0;entryDy=0;" parent="1" source="kbJRGEqropHdvLp3n68f-5" target="kbJRGEqropHdvLp3n68f-41" edge="1">
          <mxGeometry relative="1" as="geometry" />
        </mxCell>
        <mxCell id="h46miChOFF45cCHaGkxQ-20" style="edgeStyle=orthogonalEdgeStyle;rounded=0;orthogonalLoop=1;jettySize=auto;html=1;exitX=0;exitY=0;exitDx=0;exitDy=0;entryX=1;entryY=1;entryDx=0;entryDy=0;" edge="1" parent="1" source="kbJRGEqropHdvLp3n68f-5" target="kbJRGEqropHdvLp3n68f-37">
          <mxGeometry relative="1" as="geometry" />
        </mxCell>
        <mxCell id="kbJRGEqropHdvLp3n68f-5" value="Loan" style="rounded=0;whiteSpace=wrap;html=1;fillColor=#ffe6cc;strokeColor=#d79b00;" parent="1" vertex="1">
          <mxGeometry x="630" y="520" width="90" height="30" as="geometry" />
        </mxCell>
        <mxCell id="kbJRGEqropHdvLp3n68f-80" style="edgeStyle=orthogonalEdgeStyle;rounded=0;orthogonalLoop=1;jettySize=auto;html=1;exitX=0;exitY=0.5;exitDx=0;exitDy=0;" parent="1" source="kbJRGEqropHdvLp3n68f-6" target="kbJRGEqropHdvLp3n68f-45" edge="1">
          <mxGeometry relative="1" as="geometry" />
        </mxCell>
        <mxCell id="kbJRGEqropHdvLp3n68f-81" style="edgeStyle=orthogonalEdgeStyle;rounded=0;orthogonalLoop=1;jettySize=auto;html=1;exitX=0;exitY=0;exitDx=0;exitDy=0;entryX=1;entryY=1;entryDx=0;entryDy=0;" parent="1" source="kbJRGEqropHdvLp3n68f-6" target="kbJRGEqropHdvLp3n68f-42" edge="1">
          <mxGeometry relative="1" as="geometry" />
        </mxCell>
        <mxCell id="kbJRGEqropHdvLp3n68f-82" style="edgeStyle=orthogonalEdgeStyle;rounded=0;orthogonalLoop=1;jettySize=auto;html=1;exitX=0.25;exitY=0;exitDx=0;exitDy=0;entryX=0;entryY=1;entryDx=0;entryDy=0;" parent="1" source="kbJRGEqropHdvLp3n68f-6" target="kbJRGEqropHdvLp3n68f-44" edge="1">
          <mxGeometry relative="1" as="geometry">
            <Array as="points">
              <mxPoint x="1130" y="500" />
              <mxPoint x="1130" y="480" />
              <mxPoint x="1132" y="480" />
            </Array>
          </mxGeometry>
        </mxCell>
        <mxCell id="kbJRGEqropHdvLp3n68f-83" style="edgeStyle=orthogonalEdgeStyle;rounded=0;orthogonalLoop=1;jettySize=auto;html=1;exitX=0.75;exitY=0;exitDx=0;exitDy=0;entryX=0;entryY=0.5;entryDx=0;entryDy=0;" parent="1" source="kbJRGEqropHdvLp3n68f-6" target="kbJRGEqropHdvLp3n68f-46" edge="1">
          <mxGeometry relative="1" as="geometry" />
        </mxCell>
        <mxCell id="kbJRGEqropHdvLp3n68f-84" style="edgeStyle=orthogonalEdgeStyle;rounded=0;orthogonalLoop=1;jettySize=auto;html=1;exitX=1;exitY=0.5;exitDx=0;exitDy=0;entryX=0;entryY=0.5;entryDx=0;entryDy=0;" parent="1" source="kbJRGEqropHdvLp3n68f-6" target="kbJRGEqropHdvLp3n68f-47" edge="1">
          <mxGeometry relative="1" as="geometry" />
        </mxCell>
        <mxCell id="kbJRGEqropHdvLp3n68f-6" value="Payment" style="rounded=0;whiteSpace=wrap;html=1;fillColor=#e1d5e7;strokeColor=#9673a6;" parent="1" vertex="1">
          <mxGeometry x="1080" y="500" width="90" height="30" as="geometry" />
        </mxCell>
        <mxCell id="kbJRGEqropHdvLp3n68f-75" style="edgeStyle=orthogonalEdgeStyle;rounded=0;orthogonalLoop=1;jettySize=auto;html=1;exitX=0;exitY=0.5;exitDx=0;exitDy=0;entryX=0.5;entryY=0;entryDx=0;entryDy=0;" parent="1" source="kbJRGEqropHdvLp3n68f-7" target="kbJRGEqropHdvLp3n68f-49" edge="1">
          <mxGeometry relative="1" as="geometry" />
        </mxCell>
        <mxCell id="kbJRGEqropHdvLp3n68f-76" style="edgeStyle=orthogonalEdgeStyle;rounded=0;orthogonalLoop=1;jettySize=auto;html=1;exitX=0;exitY=1;exitDx=0;exitDy=0;entryX=1;entryY=0;entryDx=0;entryDy=0;" parent="1" source="kbJRGEqropHdvLp3n68f-7" target="kbJRGEqropHdvLp3n68f-50" edge="1">
          <mxGeometry relative="1" as="geometry" />
        </mxCell>
        <mxCell id="kbJRGEqropHdvLp3n68f-77" style="edgeStyle=orthogonalEdgeStyle;rounded=0;orthogonalLoop=1;jettySize=auto;html=1;exitX=0.25;exitY=1;exitDx=0;exitDy=0;" parent="1" source="kbJRGEqropHdvLp3n68f-7" target="kbJRGEqropHdvLp3n68f-51" edge="1">
          <mxGeometry relative="1" as="geometry" />
        </mxCell>
        <mxCell id="kbJRGEqropHdvLp3n68f-79" style="edgeStyle=orthogonalEdgeStyle;rounded=0;orthogonalLoop=1;jettySize=auto;html=1;exitX=1;exitY=0.5;exitDx=0;exitDy=0;entryX=0.5;entryY=0;entryDx=0;entryDy=0;" parent="1" source="kbJRGEqropHdvLp3n68f-7" target="kbJRGEqropHdvLp3n68f-53" edge="1">
          <mxGeometry relative="1" as="geometry" />
        </mxCell>
        <mxCell id="kbJRGEqropHdvLp3n68f-7" value="Staff" style="rounded=0;whiteSpace=wrap;html=1;fillColor=#f8cecc;strokeColor=#b85450;" parent="1" vertex="1">
          <mxGeometry x="135" y="560" width="95" height="30" as="geometry" />
        </mxCell>
        <mxCell id="kbJRGEqropHdvLp3n68f-85" style="edgeStyle=orthogonalEdgeStyle;rounded=0;orthogonalLoop=1;jettySize=auto;html=1;exitX=0.5;exitY=0;exitDx=0;exitDy=0;entryX=0.5;entryY=1;entryDx=0;entryDy=0;" parent="1" source="kbJRGEqropHdvLp3n68f-8" target="kbJRGEqropHdvLp3n68f-54" edge="1">
          <mxGeometry relative="1" as="geometry" />
        </mxCell>
        <mxCell id="kbJRGEqropHdvLp3n68f-86" style="edgeStyle=orthogonalEdgeStyle;rounded=0;orthogonalLoop=1;jettySize=auto;html=1;exitX=0.75;exitY=0;exitDx=0;exitDy=0;entryX=0;entryY=1;entryDx=0;entryDy=0;" parent="1" source="kbJRGEqropHdvLp3n68f-8" target="kbJRGEqropHdvLp3n68f-55" edge="1">
          <mxGeometry relative="1" as="geometry">
            <Array as="points">
              <mxPoint x="1310" y="220" />
            </Array>
          </mxGeometry>
        </mxCell>
        <mxCell id="kbJRGEqropHdvLp3n68f-87" style="edgeStyle=orthogonalEdgeStyle;rounded=0;orthogonalLoop=1;jettySize=auto;html=1;exitX=1;exitY=0.25;exitDx=0;exitDy=0;entryX=0;entryY=0.5;entryDx=0;entryDy=0;" parent="1" source="kbJRGEqropHdvLp3n68f-8" target="kbJRGEqropHdvLp3n68f-56" edge="1">
          <mxGeometry relative="1" as="geometry" />
        </mxCell>
        <mxCell id="kbJRGEqropHdvLp3n68f-88" style="edgeStyle=orthogonalEdgeStyle;rounded=0;orthogonalLoop=1;jettySize=auto;html=1;exitX=1;exitY=0.5;exitDx=0;exitDy=0;entryX=0;entryY=0;entryDx=0;entryDy=0;" parent="1" source="kbJRGEqropHdvLp3n68f-8" target="kbJRGEqropHdvLp3n68f-57" edge="1">
          <mxGeometry relative="1" as="geometry" />
        </mxCell>
        <mxCell id="kbJRGEqropHdvLp3n68f-89" style="edgeStyle=orthogonalEdgeStyle;rounded=0;orthogonalLoop=1;jettySize=auto;html=1;exitX=0.75;exitY=1;exitDx=0;exitDy=0;entryX=0;entryY=0;entryDx=0;entryDy=0;" parent="1" source="kbJRGEqropHdvLp3n68f-8" target="kbJRGEqropHdvLp3n68f-58" edge="1">
          <mxGeometry relative="1" as="geometry" />
        </mxCell>
        <mxCell id="kbJRGEqropHdvLp3n68f-90" style="edgeStyle=orthogonalEdgeStyle;rounded=0;orthogonalLoop=1;jettySize=auto;html=1;exitX=0.25;exitY=1;exitDx=0;exitDy=0;entryX=0.5;entryY=0;entryDx=0;entryDy=0;" parent="1" source="kbJRGEqropHdvLp3n68f-8" target="kbJRGEqropHdvLp3n68f-59" edge="1">
          <mxGeometry relative="1" as="geometry" />
        </mxCell>
        <mxCell id="kbJRGEqropHdvLp3n68f-8" value="Review" style="rounded=0;whiteSpace=wrap;html=1;fillColor=#ffe6cc;strokeColor=#d79b00;" parent="1" vertex="1">
          <mxGeometry x="1240" y="255" width="91" height="35" as="geometry" />
        </mxCell>
        <mxCell id="kbJRGEqropHdvLp3n68f-10" value="Location" style="ellipse;whiteSpace=wrap;html=1;" parent="1" vertex="1">
          <mxGeometry x="60" y="230" width="70" height="30" as="geometry" />
        </mxCell>
        <mxCell id="kbJRGEqropHdvLp3n68f-11" value="ContactNumber" style="ellipse;whiteSpace=wrap;html=1;" parent="1" vertex="1">
          <mxGeometry x="140" y="230" width="90" height="30" as="geometry" />
        </mxCell>
        <mxCell id="kbJRGEqropHdvLp3n68f-12" value="EstablishedYear" style="ellipse;whiteSpace=wrap;html=1;" parent="1" vertex="1">
          <mxGeometry x="220" y="250" width="100" height="30" as="geometry" />
        </mxCell>
        <mxCell id="kbJRGEqropHdvLp3n68f-13" value="Name" style="ellipse;whiteSpace=wrap;html=1;" parent="1" vertex="1">
          <mxGeometry x="20" y="280" width="70" height="30" as="geometry" />
        </mxCell>
        <mxCell id="kbJRGEqropHdvLp3n68f-14" value="LibraryID" style="ellipse;whiteSpace=wrap;html=1;" parent="1" vertex="1">
          <mxGeometry x="20" y="320" width="70" height="30" as="geometry" />
        </mxCell>
        <mxCell id="kbJRGEqropHdvLp3n68f-15" style="edgeStyle=orthogonalEdgeStyle;rounded=0;orthogonalLoop=1;jettySize=auto;html=1;exitX=1;exitY=0.25;exitDx=0;exitDy=0;entryX=0.36;entryY=0.933;entryDx=0;entryDy=0;entryPerimeter=0;" parent="1" source="kbJRGEqropHdvLp3n68f-1" target="kbJRGEqropHdvLp3n68f-12" edge="1">
          <mxGeometry relative="1" as="geometry" />
        </mxCell>
        <mxCell id="kbJRGEqropHdvLp3n68f-16" style="edgeStyle=orthogonalEdgeStyle;rounded=0;orthogonalLoop=1;jettySize=auto;html=1;exitX=0.75;exitY=0;exitDx=0;exitDy=0;entryX=0.389;entryY=1;entryDx=0;entryDy=0;entryPerimeter=0;" parent="1" source="kbJRGEqropHdvLp3n68f-1" target="kbJRGEqropHdvLp3n68f-11" edge="1">
          <mxGeometry relative="1" as="geometry" />
        </mxCell>
        <mxCell id="kbJRGEqropHdvLp3n68f-19" style="edgeStyle=orthogonalEdgeStyle;rounded=0;orthogonalLoop=1;jettySize=auto;html=1;exitX=0;exitY=0.5;exitDx=0;exitDy=0;entryX=0.957;entryY=0.8;entryDx=0;entryDy=0;entryPerimeter=0;" parent="1" source="kbJRGEqropHdvLp3n68f-1" target="kbJRGEqropHdvLp3n68f-13" edge="1">
          <mxGeometry relative="1" as="geometry" />
        </mxCell>
        <mxCell id="kbJRGEqropHdvLp3n68f-20" style="edgeStyle=orthogonalEdgeStyle;rounded=0;orthogonalLoop=1;jettySize=auto;html=1;exitX=0;exitY=0;exitDx=0;exitDy=0;entryX=0.657;entryY=1.067;entryDx=0;entryDy=0;entryPerimeter=0;" parent="1" source="kbJRGEqropHdvLp3n68f-1" target="kbJRGEqropHdvLp3n68f-10" edge="1">
          <mxGeometry relative="1" as="geometry" />
        </mxCell>
        <mxCell id="kbJRGEqropHdvLp3n68f-21" value="Statues" style="ellipse;whiteSpace=wrap;html=1;" parent="1" vertex="1">
          <mxGeometry x="780" y="230" width="70" height="30" as="geometry" />
        </mxCell>
        <mxCell id="kbJRGEqropHdvLp3n68f-22" value="Price" style="ellipse;whiteSpace=wrap;html=1;" parent="1" vertex="1">
          <mxGeometry x="750" y="190" width="70" height="30" as="geometry" />
        </mxCell>
        <mxCell id="kbJRGEqropHdvLp3n68f-23" value="Genre" style="ellipse;whiteSpace=wrap;html=1;" parent="1" vertex="1">
          <mxGeometry x="700" y="150" width="70" height="30" as="geometry" />
        </mxCell>
        <mxCell id="kbJRGEqropHdvLp3n68f-24" value="Title" style="ellipse;whiteSpace=wrap;html=1;" parent="1" vertex="1">
          <mxGeometry x="620" y="140" width="70" height="30" as="geometry" />
        </mxCell>
        <mxCell id="kbJRGEqropHdvLp3n68f-25" value="ISBN" style="ellipse;whiteSpace=wrap;html=1;" parent="1" vertex="1">
          <mxGeometry x="500" y="190" width="70" height="30" as="geometry" />
        </mxCell>
        <mxCell id="kbJRGEqropHdvLp3n68f-26" value="BookID&amp;nbsp;" style="ellipse;whiteSpace=wrap;html=1;" parent="1" vertex="1">
          <mxGeometry x="510" y="230" width="70" height="30" as="geometry" />
        </mxCell>
        <mxCell id="kbJRGEqropHdvLp3n68f-27" value="LibraryID" style="ellipse;whiteSpace=wrap;html=1;" parent="1" vertex="1">
          <mxGeometry x="500" y="270" width="70" height="30" as="geometry" />
        </mxCell>
        <mxCell id="kbJRGEqropHdvLp3n68f-28" value="MemberID&amp;nbsp;" style="ellipse;whiteSpace=wrap;html=1;" parent="1" vertex="1">
          <mxGeometry x="510" y="760" width="70" height="30" as="geometry" />
        </mxCell>
        <mxCell id="kbJRGEqropHdvLp3n68f-29" value="FullName" style="ellipse;whiteSpace=wrap;html=1;" parent="1" vertex="1">
          <mxGeometry x="520" y="800" width="70" height="30" as="geometry" />
        </mxCell>
        <mxCell id="kbJRGEqropHdvLp3n68f-30" value="Email" style="ellipse;whiteSpace=wrap;html=1;" parent="1" vertex="1">
          <mxGeometry x="580" y="840" width="70" height="30" as="geometry" />
        </mxCell>
        <mxCell id="kbJRGEqropHdvLp3n68f-31" value="Phone" style="ellipse;whiteSpace=wrap;html=1;" parent="1" vertex="1">
          <mxGeometry x="670" y="860" width="70" height="30" as="geometry" />
        </mxCell>
        <mxCell id="kbJRGEqropHdvLp3n68f-32" value="MembershipStartDate" style="ellipse;whiteSpace=wrap;html=1;" parent="1" vertex="1">
          <mxGeometry x="750" y="830" width="120" height="30" as="geometry" />
        </mxCell>
        <mxCell id="kbJRGEqropHdvLp3n68f-34" value="ShelfLocation" style="ellipse;whiteSpace=wrap;html=1;" parent="1" vertex="1">
          <mxGeometry x="780" y="290" width="70" height="30" as="geometry" />
        </mxCell>
        <mxCell id="kbJRGEqropHdvLp3n68f-35" value="LoanID&amp;nbsp;" style="ellipse;whiteSpace=wrap;html=1;" parent="1" vertex="1">
          <mxGeometry x="520" y="560" width="70" height="30" as="geometry" />
        </mxCell>
        <mxCell id="kbJRGEqropHdvLp3n68f-36" value="MemberID&amp;nbsp;" style="ellipse;whiteSpace=wrap;html=1;" parent="1" vertex="1">
          <mxGeometry x="550" y="600" width="70" height="30" as="geometry" />
        </mxCell>
        <mxCell id="kbJRGEqropHdvLp3n68f-37" value="BookID&amp;nbsp;" style="ellipse;whiteSpace=wrap;html=1;" parent="1" vertex="1">
          <mxGeometry x="520" y="470" width="70" height="30" as="geometry" />
        </mxCell>
        <mxCell id="kbJRGEqropHdvLp3n68f-38" value="LoanDate" style="ellipse;whiteSpace=wrap;html=1;" parent="1" vertex="1">
          <mxGeometry x="610" y="460" width="70" height="30" as="geometry" />
        </mxCell>
        <mxCell id="kbJRGEqropHdvLp3n68f-39" value="DueDate" style="ellipse;whiteSpace=wrap;html=1;" parent="1" vertex="1">
          <mxGeometry x="740" y="620" width="70" height="30" as="geometry" />
        </mxCell>
        <mxCell id="kbJRGEqropHdvLp3n68f-40" value="ReturnDate" style="ellipse;whiteSpace=wrap;html=1;" parent="1" vertex="1">
          <mxGeometry x="780" y="590" width="70" height="30" as="geometry" />
        </mxCell>
        <mxCell id="kbJRGEqropHdvLp3n68f-41" value="Status" style="ellipse;whiteSpace=wrap;html=1;" parent="1" vertex="1">
          <mxGeometry x="790" y="530" width="70" height="30" as="geometry" />
        </mxCell>
        <mxCell id="kbJRGEqropHdvLp3n68f-42" value="LoanID&amp;nbsp;" style="ellipse;whiteSpace=wrap;html=1;" parent="1" vertex="1">
          <mxGeometry x="1040" y="440" width="70" height="30" as="geometry" />
        </mxCell>
        <mxCell id="kbJRGEqropHdvLp3n68f-44" value="PaymentDate" style="ellipse;whiteSpace=wrap;html=1;" parent="1" vertex="1">
          <mxGeometry x="1120" y="430" width="80" height="30" as="geometry" />
        </mxCell>
        <mxCell id="kbJRGEqropHdvLp3n68f-45" value="PaymentID&amp;nbsp;" style="ellipse;whiteSpace=wrap;html=1;" parent="1" vertex="1">
          <mxGeometry x="970" y="500" width="70" height="30" as="geometry" />
        </mxCell>
        <mxCell id="kbJRGEqropHdvLp3n68f-46" value="&lt;div&gt;Amount&lt;/div&gt;" style="ellipse;whiteSpace=wrap;html=1;" parent="1" vertex="1">
          <mxGeometry x="1201" y="450" width="70" height="30" as="geometry" />
        </mxCell>
        <mxCell id="kbJRGEqropHdvLp3n68f-47" value="Method" style="ellipse;whiteSpace=wrap;html=1;" parent="1" vertex="1">
          <mxGeometry x="1220" y="500" width="70" height="30" as="geometry" />
        </mxCell>
        <mxCell id="kbJRGEqropHdvLp3n68f-49" value="StaffID&amp;nbsp;" style="ellipse;whiteSpace=wrap;html=1;" parent="1" vertex="1">
          <mxGeometry x="30" y="590" width="70" height="30" as="geometry" />
        </mxCell>
        <mxCell id="kbJRGEqropHdvLp3n68f-50" value="LibraryID&amp;nbsp;" style="ellipse;whiteSpace=wrap;html=1;" parent="1" vertex="1">
          <mxGeometry x="65" y="620" width="70" height="30" as="geometry" />
        </mxCell>
        <mxCell id="kbJRGEqropHdvLp3n68f-51" value="FullName" style="ellipse;whiteSpace=wrap;html=1;" parent="1" vertex="1">
          <mxGeometry x="125" y="640" width="70" height="30" as="geometry" />
        </mxCell>
        <mxCell id="kbJRGEqropHdvLp3n68f-52" value="Position" style="ellipse;whiteSpace=wrap;html=1;" parent="1" vertex="1">
          <mxGeometry x="200" y="630" width="70" height="30" as="geometry" />
        </mxCell>
        <mxCell id="kbJRGEqropHdvLp3n68f-53" value="ContactNumber" style="ellipse;whiteSpace=wrap;html=1;" parent="1" vertex="1">
          <mxGeometry x="221" y="590" width="99" height="30" as="geometry" />
        </mxCell>
        <mxCell id="kbJRGEqropHdvLp3n68f-54" value="ReviewID&amp;nbsp;" style="ellipse;whiteSpace=wrap;html=1;" parent="1" vertex="1">
          <mxGeometry x="1230" y="170" width="70" height="30" as="geometry" />
        </mxCell>
        <mxCell id="kbJRGEqropHdvLp3n68f-55" value="ReviewID&amp;nbsp;" style="ellipse;whiteSpace=wrap;html=1;" parent="1" vertex="1">
          <mxGeometry x="1331" y="185" width="70" height="30" as="geometry" />
        </mxCell>
        <mxCell id="kbJRGEqropHdvLp3n68f-56" value="BookID&amp;nbsp;" style="ellipse;whiteSpace=wrap;html=1;" parent="1" vertex="1">
          <mxGeometry x="1380" y="215" width="70" height="30" as="geometry" />
        </mxCell>
        <mxCell id="kbJRGEqropHdvLp3n68f-57" value="Rating" style="ellipse;whiteSpace=wrap;html=1;" parent="1" vertex="1">
          <mxGeometry x="1380" y="270" width="70" height="30" as="geometry" />
        </mxCell>
        <mxCell id="kbJRGEqropHdvLp3n68f-58" value="Comments" style="ellipse;whiteSpace=wrap;html=1;" parent="1" vertex="1">
          <mxGeometry x="1331" y="320" width="70" height="30" as="geometry" />
        </mxCell>
        <mxCell id="kbJRGEqropHdvLp3n68f-59" value="ReviewDate" style="ellipse;whiteSpace=wrap;html=1;" parent="1" vertex="1">
          <mxGeometry x="1190" y="310" width="70" height="30" as="geometry" />
        </mxCell>
        <mxCell id="kbJRGEqropHdvLp3n68f-63" style="edgeStyle=orthogonalEdgeStyle;rounded=0;orthogonalLoop=1;jettySize=auto;html=1;exitX=0.25;exitY=1;exitDx=0;exitDy=0;entryX=0.771;entryY=0.233;entryDx=0;entryDy=0;entryPerimeter=0;" parent="1" source="kbJRGEqropHdvLp3n68f-3" target="kbJRGEqropHdvLp3n68f-31" edge="1">
          <mxGeometry relative="1" as="geometry" />
        </mxCell>
        <mxCell id="kbJRGEqropHdvLp3n68f-78" style="edgeStyle=orthogonalEdgeStyle;rounded=0;orthogonalLoop=1;jettySize=auto;html=1;exitX=0.75;exitY=1;exitDx=0;exitDy=0;entryX=0.029;entryY=0.2;entryDx=0;entryDy=0;entryPerimeter=0;" parent="1" source="kbJRGEqropHdvLp3n68f-7" target="kbJRGEqropHdvLp3n68f-52" edge="1">
          <mxGeometry relative="1" as="geometry" />
        </mxCell>
        <mxCell id="h46miChOFF45cCHaGkxQ-19" style="edgeStyle=orthogonalEdgeStyle;rounded=0;orthogonalLoop=1;jettySize=auto;html=1;exitX=0.25;exitY=0;exitDx=0;exitDy=0;entryX=0.614;entryY=1.033;entryDx=0;entryDy=0;entryPerimeter=0;" edge="1" parent="1" source="kbJRGEqropHdvLp3n68f-5" target="kbJRGEqropHdvLp3n68f-38">
          <mxGeometry relative="1" as="geometry" />
        </mxCell>
        <mxCell id="h46miChOFF45cCHaGkxQ-33" value="owns" style="rhombus;whiteSpace=wrap;html=1;fillColor=#8EFF77;" vertex="1" parent="1">
          <mxGeometry x="350" y="370" width="80" height="50" as="geometry" />
        </mxCell>
        <mxCell id="h46miChOFF45cCHaGkxQ-40" value="has" style="rhombus;whiteSpace=wrap;html=1;fillColor=#8EFF77;" vertex="1" parent="1">
          <mxGeometry x="850" y="450" width="100" height="50" as="geometry" />
        </mxCell>
        <mxCell id="h46miChOFF45cCHaGkxQ-46" value="emplyes" style="rhombus;whiteSpace=wrap;html=1;fillColor=#8EFF77;" vertex="1" parent="1">
          <mxGeometry x="120" y="420" width="80" height="50" as="geometry" />
        </mxCell>
        <mxCell id="h46miChOFF45cCHaGkxQ-52" value="reviewed_in" style="rhombus;whiteSpace=wrap;html=1;fillColor=#8EFF77;" vertex="1" parent="1">
          <mxGeometry x="970" y="245" width="80" height="50" as="geometry" />
        </mxCell>
        <mxCell id="h46miChOFF45cCHaGkxQ-57" value="loaned_in" style="rhombus;whiteSpace=wrap;html=1;fillColor=#8EFF77;" vertex="1" parent="1">
          <mxGeometry x="655" y="400" width="80" height="50" as="geometry" />
        </mxCell>
        <mxCell id="h46miChOFF45cCHaGkxQ-63" value="borrowed_by" style="rhombus;whiteSpace=wrap;html=1;fillColor=#8EFF77;" vertex="1" parent="1">
          <mxGeometry x="630" y="650" width="90" height="50" as="geometry" />
        </mxCell>
        <mxCell id="h46miChOFF45cCHaGkxQ-69" value="written_by" style="rhombus;whiteSpace=wrap;html=1;fillColor=#8EFF77;" vertex="1" parent="1">
          <mxGeometry x="1271" y="610" width="80" height="50" as="geometry" />
        </mxCell>
        <mxCell id="h46miChOFF45cCHaGkxQ-74" value="" style="endArrow=none;html=1;rounded=0;exitX=0;exitY=0.5;exitDx=0;exitDy=0;entryX=0.633;entryY=1.067;entryDx=0;entryDy=0;entryPerimeter=0;" edge="1" parent="1" source="h46miChOFF45cCHaGkxQ-33" target="kbJRGEqropHdvLp3n68f-1">
          <mxGeometry relative="1" as="geometry">
            <mxPoint x="190" y="350" as="sourcePoint" />
            <mxPoint x="350" y="350" as="targetPoint" />
            <Array as="points">
              <mxPoint x="187" y="400" />
            </Array>
          </mxGeometry>
        </mxCell>
        <mxCell id="h46miChOFF45cCHaGkxQ-75" value="1" style="resizable=0;html=1;whiteSpace=wrap;align=right;verticalAlign=bottom;" connectable="0" vertex="1" parent="h46miChOFF45cCHaGkxQ-74">
          <mxGeometry x="1" relative="1" as="geometry">
            <mxPoint x="-2" y="18" as="offset" />
          </mxGeometry>
        </mxCell>
        <mxCell id="h46miChOFF45cCHaGkxQ-76" value="" style="shape=link;html=1;rounded=0;entryX=1;entryY=0.5;entryDx=0;entryDy=0;exitX=0.433;exitY=1.033;exitDx=0;exitDy=0;exitPerimeter=0;" edge="1" parent="1" source="kbJRGEqropHdvLp3n68f-2" target="h46miChOFF45cCHaGkxQ-33">
          <mxGeometry relative="1" as="geometry">
            <mxPoint x="400" y="450" as="sourcePoint" />
            <mxPoint x="560" y="450" as="targetPoint" />
            <Array as="points">
              <mxPoint x="670" y="395" />
            </Array>
          </mxGeometry>
        </mxCell>
        <mxCell id="h46miChOFF45cCHaGkxQ-77" value="M" style="resizable=0;html=1;whiteSpace=wrap;align=left;verticalAlign=bottom;" connectable="0" vertex="1" parent="h46miChOFF45cCHaGkxQ-76">
          <mxGeometry x="-1" relative="1" as="geometry">
            <mxPoint x="-19" y="19" as="offset" />
          </mxGeometry>
        </mxCell>
        <mxCell id="h46miChOFF45cCHaGkxQ-79" value="" style="endArrow=none;html=1;rounded=0;entryX=0.333;entryY=1;entryDx=0;entryDy=0;entryPerimeter=0;exitX=0.5;exitY=0;exitDx=0;exitDy=0;" edge="1" parent="1" source="h46miChOFF45cCHaGkxQ-46" target="kbJRGEqropHdvLp3n68f-1">
          <mxGeometry relative="1" as="geometry">
            <mxPoint x="20" y="390" as="sourcePoint" />
            <mxPoint x="180" y="390" as="targetPoint" />
          </mxGeometry>
        </mxCell>
        <mxCell id="h46miChOFF45cCHaGkxQ-80" value="1" style="resizable=0;html=1;whiteSpace=wrap;align=right;verticalAlign=bottom;" connectable="0" vertex="1" parent="h46miChOFF45cCHaGkxQ-79">
          <mxGeometry x="1" relative="1" as="geometry">
            <mxPoint y="20" as="offset" />
          </mxGeometry>
        </mxCell>
        <mxCell id="h46miChOFF45cCHaGkxQ-81" value="" style="shape=link;html=1;rounded=0;entryX=0.5;entryY=1;entryDx=0;entryDy=0;exitX=0.25;exitY=0;exitDx=0;exitDy=0;" edge="1" parent="1" source="kbJRGEqropHdvLp3n68f-7" target="h46miChOFF45cCHaGkxQ-46">
          <mxGeometry relative="1" as="geometry">
            <mxPoint x="90" y="510" as="sourcePoint" />
            <mxPoint x="250" y="510" as="targetPoint" />
          </mxGeometry>
        </mxCell>
        <mxCell id="h46miChOFF45cCHaGkxQ-82" value="M" style="resizable=0;html=1;whiteSpace=wrap;align=left;verticalAlign=bottom;" connectable="0" vertex="1" parent="h46miChOFF45cCHaGkxQ-81">
          <mxGeometry x="-1" relative="1" as="geometry">
            <mxPoint x="1" as="offset" />
          </mxGeometry>
        </mxCell>
        <mxCell id="h46miChOFF45cCHaGkxQ-84" value="" style="shape=link;html=1;rounded=0;entryX=0.5;entryY=1;entryDx=0;entryDy=0;exitX=0.75;exitY=0;exitDx=0;exitDy=0;" edge="1" parent="1" source="kbJRGEqropHdvLp3n68f-5" target="h46miChOFF45cCHaGkxQ-57">
          <mxGeometry relative="1" as="geometry">
            <mxPoint x="630" y="450" as="sourcePoint" />
            <mxPoint x="790" y="450" as="targetPoint" />
          </mxGeometry>
        </mxCell>
        <mxCell id="h46miChOFF45cCHaGkxQ-85" value="M" style="resizable=0;html=1;whiteSpace=wrap;align=left;verticalAlign=bottom;" connectable="0" vertex="1" parent="h46miChOFF45cCHaGkxQ-84">
          <mxGeometry x="-1" relative="1" as="geometry" />
        </mxCell>
        <mxCell id="h46miChOFF45cCHaGkxQ-87" value="" style="endArrow=none;html=1;rounded=0;entryX=0.75;entryY=1;entryDx=0;entryDy=0;exitX=0.5;exitY=0;exitDx=0;exitDy=0;" edge="1" parent="1" source="h46miChOFF45cCHaGkxQ-57" target="kbJRGEqropHdvLp3n68f-2">
          <mxGeometry relative="1" as="geometry">
            <mxPoint x="560" y="340" as="sourcePoint" />
            <mxPoint x="720" y="340" as="targetPoint" />
          </mxGeometry>
        </mxCell>
        <mxCell id="h46miChOFF45cCHaGkxQ-88" value="1" style="resizable=0;html=1;whiteSpace=wrap;align=right;verticalAlign=bottom;" connectable="0" vertex="1" parent="h46miChOFF45cCHaGkxQ-87">
          <mxGeometry x="1" relative="1" as="geometry">
            <mxPoint x="-2" y="20" as="offset" />
          </mxGeometry>
        </mxCell>
        <mxCell id="h46miChOFF45cCHaGkxQ-94" value="" style="endArrow=none;html=1;rounded=0;entryX=1;entryY=0.5;entryDx=0;entryDy=0;exitX=0.5;exitY=1;exitDx=0;exitDy=0;" edge="1" parent="1" source="h46miChOFF45cCHaGkxQ-69" target="kbJRGEqropHdvLp3n68f-3">
          <mxGeometry relative="1" as="geometry">
            <mxPoint x="810" y="770" as="sourcePoint" />
            <mxPoint x="970" y="770" as="targetPoint" />
            <Array as="points">
              <mxPoint x="1310" y="780" />
            </Array>
          </mxGeometry>
        </mxCell>
        <mxCell id="h46miChOFF45cCHaGkxQ-95" value="1" style="resizable=0;html=1;whiteSpace=wrap;align=right;verticalAlign=bottom;" connectable="0" vertex="1" parent="h46miChOFF45cCHaGkxQ-94">
          <mxGeometry x="1" relative="1" as="geometry">
            <mxPoint x="15" as="offset" />
          </mxGeometry>
        </mxCell>
        <mxCell id="h46miChOFF45cCHaGkxQ-96" value="" style="shape=link;html=1;rounded=0;exitX=0.5;exitY=1;exitDx=0;exitDy=0;entryX=0.5;entryY=0;entryDx=0;entryDy=0;" edge="1" parent="1" source="kbJRGEqropHdvLp3n68f-8" target="h46miChOFF45cCHaGkxQ-69">
          <mxGeometry relative="1" as="geometry">
            <mxPoint x="1270" y="300" as="sourcePoint" />
            <mxPoint x="1430" y="300" as="targetPoint" />
          </mxGeometry>
        </mxCell>
        <mxCell id="h46miChOFF45cCHaGkxQ-97" value="M" style="resizable=0;html=1;whiteSpace=wrap;align=left;verticalAlign=bottom;" connectable="0" vertex="1" parent="h46miChOFF45cCHaGkxQ-96">
          <mxGeometry x="-1" relative="1" as="geometry">
            <mxPoint x="5" y="15" as="offset" />
          </mxGeometry>
        </mxCell>
        <mxCell id="h46miChOFF45cCHaGkxQ-99" value="" style="endArrow=none;html=1;rounded=0;entryX=1;entryY=0.5;entryDx=0;entryDy=0;exitX=0;exitY=0.5;exitDx=0;exitDy=0;" edge="1" parent="1" source="h46miChOFF45cCHaGkxQ-52" target="kbJRGEqropHdvLp3n68f-2">
          <mxGeometry relative="1" as="geometry">
            <mxPoint x="930" y="360" as="sourcePoint" />
            <mxPoint x="1090" y="360" as="targetPoint" />
          </mxGeometry>
        </mxCell>
        <mxCell id="h46miChOFF45cCHaGkxQ-100" value="1" style="resizable=0;html=1;whiteSpace=wrap;align=right;verticalAlign=bottom;" connectable="0" vertex="1" parent="h46miChOFF45cCHaGkxQ-99">
          <mxGeometry x="1" relative="1" as="geometry">
            <mxPoint x="15" y="10" as="offset" />
          </mxGeometry>
        </mxCell>
        <mxCell id="h46miChOFF45cCHaGkxQ-101" value="" style="shape=link;html=1;rounded=0;entryX=1;entryY=0.5;entryDx=0;entryDy=0;exitX=0;exitY=0.5;exitDx=0;exitDy=0;" edge="1" parent="1" source="kbJRGEqropHdvLp3n68f-8" target="h46miChOFF45cCHaGkxQ-52">
          <mxGeometry relative="1" as="geometry">
            <mxPoint x="1060" y="310" as="sourcePoint" />
            <mxPoint x="1220" y="310" as="targetPoint" />
          </mxGeometry>
        </mxCell>
        <mxCell id="h46miChOFF45cCHaGkxQ-102" value="M" style="resizable=0;html=1;whiteSpace=wrap;align=left;verticalAlign=bottom;" connectable="0" vertex="1" parent="h46miChOFF45cCHaGkxQ-101">
          <mxGeometry x="-1" relative="1" as="geometry">
            <mxPoint x="-15" as="offset" />
          </mxGeometry>
        </mxCell>
        <mxCell id="h46miChOFF45cCHaGkxQ-105" value="" style="endArrow=none;html=1;rounded=0;entryX=1;entryY=0;entryDx=0;entryDy=0;exitX=0;exitY=0.5;exitDx=0;exitDy=0;" edge="1" parent="1" source="h46miChOFF45cCHaGkxQ-40" target="kbJRGEqropHdvLp3n68f-5">
          <mxGeometry relative="1" as="geometry">
            <mxPoint x="760" y="480" as="sourcePoint" />
            <mxPoint x="920" y="480" as="targetPoint" />
            <Array as="points">
              <mxPoint x="820" y="480" />
            </Array>
          </mxGeometry>
        </mxCell>
        <mxCell id="h46miChOFF45cCHaGkxQ-106" value="1" style="resizable=0;html=1;whiteSpace=wrap;align=right;verticalAlign=bottom;" connectable="0" vertex="1" parent="h46miChOFF45cCHaGkxQ-105">
          <mxGeometry x="1" relative="1" as="geometry" />
        </mxCell>
        <mxCell id="h46miChOFF45cCHaGkxQ-107" value="" style="shape=link;html=1;rounded=0;entryX=1;entryY=0.5;entryDx=0;entryDy=0;exitX=0;exitY=0;exitDx=0;exitDy=0;" edge="1" parent="1" source="kbJRGEqropHdvLp3n68f-6" target="h46miChOFF45cCHaGkxQ-40">
          <mxGeometry relative="1" as="geometry">
            <mxPoint x="870" y="420" as="sourcePoint" />
            <mxPoint x="1030" y="420" as="targetPoint" />
          </mxGeometry>
        </mxCell>
        <mxCell id="h46miChOFF45cCHaGkxQ-108" value="M" style="resizable=0;html=1;whiteSpace=wrap;align=left;verticalAlign=bottom;" connectable="0" vertex="1" parent="h46miChOFF45cCHaGkxQ-107">
          <mxGeometry x="-1" relative="1" as="geometry" />
        </mxCell>
        <mxCell id="h46miChOFF45cCHaGkxQ-110" value="" style="shape=link;html=1;rounded=0;entryX=0.5;entryY=1;entryDx=0;entryDy=0;" edge="1" parent="1" source="h46miChOFF45cCHaGkxQ-63" target="kbJRGEqropHdvLp3n68f-5">
          <mxGeometry relative="1" as="geometry">
            <mxPoint x="480" y="680" as="sourcePoint" />
            <mxPoint x="640" y="680" as="targetPoint" />
          </mxGeometry>
        </mxCell>
        <mxCell id="h46miChOFF45cCHaGkxQ-111" value="M" style="resizable=0;html=1;whiteSpace=wrap;align=left;verticalAlign=bottom;" connectable="0" vertex="1" parent="h46miChOFF45cCHaGkxQ-110">
          <mxGeometry x="-1" relative="1" as="geometry" />
        </mxCell>
        <mxCell id="h46miChOFF45cCHaGkxQ-113" value="" style="endArrow=none;html=1;rounded=0;entryX=0.25;entryY=0;entryDx=0;entryDy=0;exitX=0.5;exitY=1;exitDx=0;exitDy=0;" edge="1" parent="1" source="h46miChOFF45cCHaGkxQ-63" target="kbJRGEqropHdvLp3n68f-3">
          <mxGeometry relative="1" as="geometry">
            <mxPoint x="460" y="700" as="sourcePoint" />
            <mxPoint x="620" y="700" as="targetPoint" />
          </mxGeometry>
        </mxCell>
        <mxCell id="h46miChOFF45cCHaGkxQ-114" value="1" style="resizable=0;html=1;whiteSpace=wrap;align=right;verticalAlign=bottom;" connectable="0" vertex="1" parent="h46miChOFF45cCHaGkxQ-113">
          <mxGeometry x="1" relative="1" as="geometry" />
        </mxCell>
      </root>
    </mxGraphModel>
  </diagram>
</mxfile>
